<svg xmlns="http://www.w3.org/2000/svg" viewBox="0 0 600 150">
  <g fill="#D4AF37">
    <path d="M50,20 V100 H75 V70 H115 V100 H140 V20 H115 V50 H75 V20 Z" /> <path d="M155,20 V85 Q155,100 175,100 Q195,100 195,85 V20 H170 V85 Q170,90 175,90 Q180,90 180,85 V20 Z" /> <path d="M210,20 L260,100 L380,20 L340,20 L260,70 L235,20 Z" /> 
    <path d="M305,20 V100 H330 V20 Z" /> <path d="M345,20 V100 H370 V55 L410,100 H435 V20 H410 V65 L370,20 Z" /> <path d="M450,20 V100 H475 V70 L515,100 H545 L495,60 L540,20 H510 L475,50 V20 Z" /> </g>
  
  <g fill="#ffffff" transform="translate(180, 110) scale(0.8)">
    <path d="M20,0 L0,50 H15 L20,35 H40 L45,50 H60 L40,0 H20 Z M25,25 L30,10 L35,25 H25 Z" /> <path d="M70,0 V50 H100 V40 H85 V30 H95 V20 H85 V10 H100 V0 H70 Z" /> <path d="M110,0 V50 H135 Q150,50 150,35 Q150,28 145,25 Q150,22 150,15 Q150,0 135,0 H110 Z M125,10 H135 Q140,10 140,15 Q140,20 135,20 H125 V10 Z M125,30 H135 Q140,30 140,35 Q140,40 135,40 H125 V30 Z" /> <path d="M160,25 Q160,0 185,0 Q210,0 210,25 Q210,50 185,50 Q160,50 160,25 Z M175,25 Q175,40 185,40 Q195,40 195,25 Q195,10 185,10 Q175,10 175,25 Z" /> <path d="M220,0 V35 Q220,50 240,50 Q260,50 260,35 V0 H245 V35 Q245,40 240,40 Q235,40 235,35 V0 H220 Z" /> <path d="M270,0 L285,50 H300 L315,20 L330,50 H345 L360,0 H345 L335,35 L320,0 H305 L290,35 L280,0 H270 Z" /> </g>
</svg>
