<?xml version="1.0" encoding="UTF-8"?>
<svg id="Laag_1" data-name="Laag 1" xmlns="http://www.w3.org/2000/svg" width="184.61" height="90.74" xmlns:xlink="http://www.w3.org/1999/xlink" viewBox="0 0 184.61 90.74">
  <defs>
    <style>
      .cls-1 {
        stroke: url(#Naamloos_verloop_834);
      }

      .cls-1, .cls-2, .cls-3, .cls-4, .cls-5, .cls-6, .cls-7, .cls-8, .cls-9, .cls-10 {
        stroke-miterlimit: 10;
        stroke-width: 10.51px;
      }

      .cls-1, .cls-2, .cls-7, .cls-10 {
        fill: #d7b700;
      }

      .cls-2 {
        stroke: url(#Naamloos_verloop_895);
      }

      .cls-3 {
        stroke: url(#Naamloos_verloop_426);
      }

      .cls-3, .cls-4, .cls-5, .cls-6, .cls-8, .cls-9 {
        fill: none;
      }

      .cls-4 {
        stroke: url(#Naamloos_verloop_938);
      }

      .cls-5, .cls-10 {
        stroke: #d4af37;
      }

      .cls-6 {
        stroke: url(#Naamloos_verloop_933);
      }

      .cls-7 {
        stroke: url(#Naamloos_verloop_846);
      }

      .cls-11 {
        fill: #8c8c8c;
        font-family: Swiss721BT-BlackExtended, 'Swis721 BlkEx BT';
        font-size: 12.65px;
        font-weight: 800;
      }

      .cls-12 {
        fill: #d4af37;
      }

      .cls-8 {
        stroke: #8c8c8c;
      }

      .cls-13 {
        fill: url(#Naamloos_verloop_779);
      }

      .cls-9 {
        stroke: url(#Naamloos_verloop_910);
      }
    </style>
    <linearGradient id="Naamloos_verloop_933" data-name="Naamloos verloop 933" x1="30.81" y1="67.33" x2="57.71" y2="67.33" gradientUnits="userSpaceOnUse">
      <stop offset="0" stop-color="#6a6969"/>
      <stop offset=".11" stop-color="#757474"/>
      <stop offset=".29" stop-color="#828181"/>
      <stop offset=".53" stop-color="#898989"/>
      <stop offset="1" stop-color="#8c8c8c"/>
    </linearGradient>
    <linearGradient id="Naamloos_verloop_426" data-name="Naamloos verloop 426" x1="65.82" y1="44.6" x2="127.68" y2="44.6" gradientUnits="userSpaceOnUse">
      <stop offset="0" stop-color="#121212"/>
      <stop offset="1" stop-color="#555556"/>
    </linearGradient>
    <linearGradient id="Naamloos_verloop_834" data-name="Naamloos verloop 834" x1="107.59" y1="60.28" x2="118.1" y2="60.28" gradientUnits="userSpaceOnUse">
      <stop offset="0" stop-color="#bb9b31"/>
      <stop offset="1" stop-color="#d4af37"/>
    </linearGradient>
    <linearGradient id="Naamloos_verloop_779" data-name="Naamloos verloop 779" x1="107.58" y1="35.61" x2="118.11" y2="35.61" gradientUnits="userSpaceOnUse">
      <stop offset="0" stop-color="#bb9b31"/>
      <stop offset="1" stop-color="#d4af37"/>
    </linearGradient>
    <linearGradient id="Naamloos_verloop_938" data-name="Naamloos verloop 938" x1="34.7" y1="31.87" x2="52.44" y2="31.87" gradientUnits="userSpaceOnUse">
      <stop offset="0" stop-color="#6a6969"/>
      <stop offset=".02" stop-color="#6b6a6a"/>
      <stop offset=".33" stop-color="#7d7d7d"/>
      <stop offset=".65" stop-color="#888"/>
      <stop offset="1" stop-color="#8c8c8c"/>
    </linearGradient>
    <linearGradient id="Naamloos_verloop_910" data-name="Naamloos verloop 910" x1="0" y1="51.28" x2="10.5" y2="51.28" gradientUnits="userSpaceOnUse">
      <stop offset="0" stop-color="#6a6969"/>
      <stop offset="1" stop-color="#8c8c8c"/>
    </linearGradient>
    <linearGradient id="Naamloos_verloop_846" data-name="Naamloos verloop 846" x1="120.9" y1="51.21" x2="131.4" y2="51.21" gradientUnits="userSpaceOnUse">
      <stop offset="0" stop-color="#bb9b31"/>
      <stop offset="1" stop-color="#d4af37"/>
      <stop offset="1" stop-color="#1d1d1b"/>
    </linearGradient>
    <linearGradient id="Naamloos_verloop_895" data-name="Naamloos verloop 895" x1="156.45" y1="51.21" x2="166.95" y2="51.21" gradientUnits="userSpaceOnUse">
      <stop offset="0" stop-color="#bb9b31"/>
      <stop offset="1" stop-color="#d4af37"/>
    </linearGradient>
  </defs>
  <path class="cls-6" d="M52.44,59.38c.03.54.25,5.24-3.53,8.51-3.69,3.2-8.31,2.52-9.71,2.1-.06-.02-.12-.04-.12-.04-2.35-.73-3.65-1.82-4.39-2.63"/>
  <path class="cls-3" d="M68.87,28.45c1.36.97,3.26,2.57,4.86,5.02,1.09,1.66,1.35,2.84,2.87,6.77,1.46,3.75,2.5,6.65,3.45,9.26,1.11,3.07,2.24,6.14,3.36,9.21,1.18,3.25,2.88,7.86,5,13.51,2.47-8.96,4.88-16.18,6.73-21.4,1.38-3.87,2.42-6.53,2.69-7.23,1.93-4.92,4.33-11.04,7.58-17.06,3.67-6.79,5.88-10.97,10.47-15.27,3.5-3.27,6.97-5.32,9.45-6.57"/>
  <path class="cls-1" d="M112.85,75.87v-31.19,31.19Z"/>
  <path class="cls-13" d="M107.58,44.68c0-.17.01-.44.03-.77.05-.87.33-4.61,3.33-10.55.78-1.55,1.2-2.34,1.98-3.32,1.49-1.86,3.96-3.97,4.89-3.4.37.23.29.74.28,4.12,0,.95.01,1.9,0,2.85,0,.43,0,2.54-.01,6.74,0,.99,0,2.48,0,4.33h-10.51Z"/>
  <line class="cls-10" x1="147.6" y1="75.87" x2="147.6" y2="26.55"/>
  <line class="cls-10" x1="126.69" y1="28.88" x2="147.13" y2="73.68"/>
  <line class="cls-5" x1="180.02" y1="28.88" x2="161.7" y2="61.66"/>
  <line class="cls-5" x1="166.43" y1="53.56" x2="180.02" y2="73.21"/>
  <line class="cls-8" x1="52.44" y1="59.91" x2="52.44" y2="26.61"/>
  <line class="cls-4" x1="52.44" y1="31.87" x2="34.7" y2="31.87"/>
  <line class="cls-8" x1="23" y1="26.61" x2="23" y2="75.94"/>
  <line class="cls-8" x1="23" y1="51.28" x2="5.25" y2="51.28"/>
  <polyline class="cls-12" points="175.46 26.35 184.6 31.44 184.6 26.29 184.61 26.29 175.43 26.31"/>
  <polygon class="cls-12" points="175.7 76.2 184.34 70.22 184.34 76.2 175.7 76.2"/>
  <text class="cls-11" transform="translate(107.58 87.7)"><tspan x="0" y="0">AFBOUW</tspan></text>
  <line class="cls-9" x1="5.25" y1="75.94" x2="5.25" y2="26.61"/>
  <line class="cls-7" x1="126.15" y1="26.55" x2="126.15" y2="75.87"/>
  <line class="cls-2" x1="161.7" y1="26.55" x2="161.7" y2="75.87"/>
</svg>